<?xml version="1.0" encoding="UTF-8" standalone="no"?>
<!-- Created with Inkscape (http://www.inkscape.org/) -->

<svg
   xmlns:dc="http://purl.org/dc/elements/1.1/"
   xmlns:cc="http://creativecommons.org/ns#"
   xmlns:rdf="http://www.w3.org/1999/02/22-rdf-syntax-ns#"
   xmlns:svg="http://www.w3.org/2000/svg"
   xmlns="http://www.w3.org/2000/svg"
   xmlns:sodipodi="http://sodipodi.sourceforge.net/DTD/sodipodi-0.dtd"
   xmlns:inkscape="http://www.inkscape.org/namespaces/inkscape"
   width="16"
   height="16"
   viewBox="0 0 4.2333332 4.2333335"
   version="1.1"
   id="svg8"
   inkscape:version="0.92.2 (5c3e80d, 2017-08-06)"
   sodipodi:docname="random-choice.svg">
  <defs
     id="defs2" />
  <sodipodi:namedview
     id="base"
     pagecolor="#ffffff"
     bordercolor="#666666"
     borderopacity="1.0"
     inkscape:pageopacity="0.0"
     inkscape:pageshadow="2"
     inkscape:zoom="25.875"
     inkscape:cx="1.7732508"
     inkscape:cy="3.4618287"
     inkscape:document-units="mm"
     inkscape:current-layer="layer1"
     showgrid="true"
     units="px"
     inkscape:snap-bbox="true"
     inkscape:bbox-paths="true"
     inkscape:bbox-nodes="true"
     inkscape:snap-bbox-edge-midpoints="true"
     inkscape:snap-bbox-midpoints="true"
     inkscape:snap-smooth-nodes="true"
     inkscape:object-paths="true"
     inkscape:snap-intersection-paths="true"
     inkscape:snap-center="true"
     inkscape:window-width="1920"
     inkscape:window-height="1027"
     inkscape:window-x="1280"
     inkscape:window-y="29"
     inkscape:window-maximized="1">
    <inkscape:grid
       type="xygrid"
       id="grid815"
       spacingx="0.13229167"
       spacingy="0.13229167"
       color="#ff0000"
       opacity="0.1254902"
       empcolor="#ff0000"
       empopacity="0.25098039"
       empspacing="2"
       dotted="true" />
    <inkscape:grid
       type="xygrid"
       id="grid817"
       empspacing="8"
       empcolor="#005717"
       empopacity="0.25098039"
       dotted="false" />
  </sodipodi:namedview>
  <metadata
     id="metadata5">
    <rdf:RDF>
      <cc:Work
         rdf:about="">
        <dc:format>image/svg+xml</dc:format>
        <dc:type
           rdf:resource="http://purl.org/dc/dcmitype/StillImage" />
        <dc:title></dc:title>
      </cc:Work>
    </rdf:RDF>
  </metadata>
  <g
     inkscape:label="Layer 1"
     inkscape:groupmode="layer"
     id="layer1"
     transform="translate(0,-292.76665)">
    <path
       style="fill:#000000;fill-opacity:1;fill-rule:evenodd;stroke:none;stroke-width:0.09999999;stroke-linecap:butt;stroke-linejoin:miter;stroke-miterlimit:4;stroke-dasharray:none;stroke-opacity:1"
       d="M 8.5 0 L 6 3 L 8 3 L 8 6.7929688 L 6.0253906 4.8183594 L 7.4394531 3.4042969 L 3.5507812 3.0507812 L 3.9042969 6.9394531 L 5.3183594 5.5253906 L 7.2929688 7.5 L 3.5 7.5 L 3.5 5.5 L 0.5 8 L 3.5 10.5 L 3.5 8.5 L 4.5976562 8.5 L 4.2578125 12.242188 L 8 11.902344 L 8 13 L 6 13 L 8.5 16 L 10.714844 13.34375 L 14.15625 13.65625 L 13.802734 9.7675781 L 12.388672 11.181641 L 11.613281 10.40625 L 14.5 8 L 13.105469 6.8378906 L 13.449219 3.0507812 L 9.5605469 3.4042969 L 10.974609 4.8183594 L 9 6.7929688 L 9 3 L 11 3 L 8.5 0 z M 11.681641 5.5253906 L 12.4375 6.28125 L 11.613281 5.59375 L 11.681641 5.5253906 z M 11.5 5.7070312 L 11.5 7.5 L 9.7070312 7.5 L 11.5 5.7070312 z M 4.7578125 8.5 L 7.2929688 8.5 L 6.0253906 9.7675781 L 4.7578125 8.5 z M 9.7070312 8.5 L 11.5 8.5 L 11.5 10.292969 L 9.7070312 8.5 z M 8 9.2070312 L 8 11.742188 L 6.7324219 10.474609 L 8 9.2070312 z M 9 9.2070312 L 11.681641 11.888672 L 10.570312 13 L 9 13 L 9 9.2070312 z "
       transform="matrix(0.26458333,0,0,0.26458333,0,292.76665)"
       id="path815" />
  </g>
</svg>
